# xmcd
# 
# Track frame offsets:
#     150
#     23712
#     38545
#     60392
#     84535
#     101930
#     118430
#     138022
#     153882
#     173660
#     189185
#     211112
#     225492
# 
# Disc length: 3299
# 
# Revision: 10
# Processed by: cddbd v1.5.2PL0 Copyright (c) Steve Scherf et al.
# Submitted via: fre:ac v1.0.31
# 
DISCID=980ce10d
DTITLE=MIGHTY SAM McCLAIN - Sweet Dreams
DYEAR=2001
DGENRE=Blues
TTITLE0=Here I Come Again
TTITLE1=Sweet Dreams
TTITLE2=Standing In The Wings
TTITLE3=Learn How To Love You Again
TTITLE4=Fool For The Blues
TTITLE5=Living In My Dreams
TTITLE6=Nothing But A Feeling
TTITLE7=Respect Yourself
TTITLE8=This One Is For My Baby
TTITLE9=I Love Hard
TTITLE10=Where Would I Be?
TTITLE11=Must Be The Music
TTITLE12=Here I Come Again (Reprise)
EXTD=A must for any Blues Library ID3G:   0
EXTT0=
EXTT1=
EXTT2=
EXTT3=
EXTT4=
EXTT5=
EXTT6=
EXTT7=
EXTT8=
EXTT9=
EXTT10=
EXTT11=
EXTT12=
PLAYORDER=
